<svg width="11" height="11" viewBox="0 0 11 11" fill="none" xmlns="http://www.w3.org/2000/svg">
<path d="M2.4071 5.50001C2.4071 5.71352 2.58019 5.88661 2.79371 5.88661H5.04891C5.08449 5.88661 5.11334 5.91546 5.11334 5.95104V8.20624C5.11334 8.41976 5.28643 8.59285 5.49995 8.59285C5.71346 8.59285 5.88655 8.41976 5.88655 8.20624V5.95104C5.88655 5.91546 5.9154 5.88661 5.95098 5.88661H8.20618C8.4197 5.88661 8.59279 5.71352 8.59279 5.50001C8.59279 5.28649 8.4197 5.1134 8.20618 5.1134H5.95098C5.9154 5.1134 5.88655 5.08455 5.88655 5.04897V2.79377C5.88655 2.58025 5.71346 2.40717 5.49995 2.40717C5.28643 2.40717 5.11334 2.58025 5.11334 2.79377V5.04897C5.11334 5.08455 5.08449 5.1134 5.04891 5.1134H2.79371C2.58019 5.1134 2.4071 5.28649 2.4071 5.50001Z" fill="#979797"/>
<mask id="mask0" mask-type="alpha" maskUnits="userSpaceOnUse" x="2" y="2" width="7" height="7">
<path d="M2.4071 5.50001C2.4071 5.71352 2.58019 5.88661 2.79371 5.88661H5.04891C5.08449 5.88661 5.11334 5.91546 5.11334 5.95104V8.20624C5.11334 8.41976 5.28643 8.59285 5.49995 8.59285C5.71346 8.59285 5.88655 8.41976 5.88655 8.20624V5.95104C5.88655 5.91546 5.9154 5.88661 5.95098 5.88661H8.20618C8.4197 5.88661 8.59279 5.71352 8.59279 5.50001C8.59279 5.28649 8.4197 5.1134 8.20618 5.1134H5.95098C5.9154 5.1134 5.88655 5.08455 5.88655 5.04897V2.79377C5.88655 2.58025 5.71346 2.40717 5.49995 2.40717C5.28643 2.40717 5.11334 2.58025 5.11334 2.79377V5.04897C5.11334 5.08455 5.08449 5.1134 5.04891 5.1134H2.79371C2.58019 5.1134 2.4071 5.28649 2.4071 5.50001Z" fill="white"/>
</mask>
<g mask="url(#mask0)">
<rect x="0.863647" y="0.863647" width="9.27273" height="9.27273" fill="#FFA279"/>
</g>
</svg>
