<svg xmlns="http://www.w3.org/2000/svg" viewBox="0 0 1050 980"><defs><style>.cls-1{fill:#2159ff;}.cls-2{fill:#fdfdfd;}.cls-3{fill:#ebaea6;}.cls-4{fill:#d6847a;}.cls-5{fill:#58595b;}.cls-6{fill:#ffa279;}.cls-7{fill:#f8786b;}.cls-8{fill:#d4675c;}.cls-9{fill:#a83a2d;}.cls-10{fill:none;stroke:#fff;stroke-miterlimit:10;}.cls-11{fill:#a82820;}.cls-12{fill:#c22f25;}</style></defs><title>basket</title><g id="Calque_1" data-name="Calque 1"><g id="Layer_1" data-name="Layer 1"><rect class="cls-1" x="-350" width="1400" height="980"/><path class="cls-2" d="M464.1,205.1a72.25,72.25,0,0,0-55.9.3c-16.8-25.4-47.4-42.2-77.7-39.7s-58.6,22.4-71,50.2a73.77,73.77,0,0,0-52.1,3.9,72.23,72.23,0,0,0-35.3,37.7H509.3C499.5,231,481.7,212.5,464.1,205.1Z"/><path class="cls-2" d="M771.7,493.1a47.4,47.4,0,0,0-36.6.2c-11-16.6-31-27.6-50.9-26a56.92,56.92,0,0,0-46.5,32.9,48.41,48.41,0,0,0-34.1,2.6,47.23,47.23,0,0,0-23.1,24.7H801.3C795,510,783.3,497.9,771.7,493.1Z"/><path class="cls-2" d="M-.8,395.8a47.4,47.4,0,0,1,36.6.2c11-16.6,31-27.6,50.9-26a56.92,56.92,0,0,1,46.5,32.9,48.41,48.41,0,0,1,34.1,2.6,47.23,47.23,0,0,1,23.1,24.7H-30.4C-24,412.8-12.4,400.6-.8,395.8Z"/><rect class="cls-3" x="-350" y="875.9" width="1400" height="104.1"/><path class="cls-4" d="M366.9,905.9c0-9.3-59.4-16.8-132.6-16.8s-132.6,7.5-132.6,16.8c0,1.2,1,2.3,2.8,3.4-61,1.8-106.6,8.7-106.6,17,0,9.6,61.3,17.4,137,17.4s137-7.8,137-17.4c0-1.4-1.3-2.8-3.9-4.1C324.9,920.3,366.9,913.7,366.9,905.9Z"/><polygon class="cls-5" points="650.5 286.2 642.8 278.4 534.1 387.1 534.1 211.4 518.3 211.4 518.3 389.3 407.5 278.6 399.8 286.3 518.3 404.8 518.3 854.5 534.1 854.5 534.1 402.6 650.5 286.2"/><polygon class="cls-6" points="697.9 284 361.4 294.1 351.3 55.6 708 65.8 697.9 284"/><path class="cls-2" d="M375.2,281.2a1.88,1.88,0,0,1-1.9-1.8L364.4,70.6a1.82,1.82,0,0,1,.6-1.4,2,2,0,0,1,1.4-.6l326.5,9.3a2,2,0,0,1,1.4.6,1.87,1.87,0,0,1,.5,1.4L686,270.1a1.88,1.88,0,0,1-1.9,1.8l-308.9,9.3ZM368.4,72.5l8.7,204.8,305.1-9.2,8.7-186.4Z"/><path class="cls-2" d="M411.2,279.1a1.88,1.88,0,0,1-1.9-1.8l-5.6-131.5a1.82,1.82,0,0,1,.6-1.4,2,2,0,0,1,1.4-.6l248,7.1a2,2,0,0,1,1.4.6,1.87,1.87,0,0,1,.5,1.4l-5.5,117.3a1.88,1.88,0,0,1-1.9,1.8l-237,7.1Zm-3.6-131.4L413,275.2l233.3-7,5.3-113.5Z"/><path class="cls-5" d="M666.2,876.5h-280v-2.8a30.34,30.34,0,0,1,30.3-30.3H635.9a30.34,30.34,0,0,1,30.3,30.3Z"/><path class="cls-4" d="M616.8,908.1h100c17.1,0-4.5-13.6-48.2-30.3l-4.9-1.9H386.2l4.9,1.9c43.7,16.7,93,30.3,110.1,30.3h100l188,71.9h15.7Z"/><ellipse class="cls-4" cx="260.7" cy="953.9" rx="22" ry="5.7"/><ellipse class="cls-4" cx="366.9" cy="948.2" rx="22" ry="5.7"/><ellipse class="cls-4" cx="408.8" cy="910.9" rx="14" ry="3.6"/></g></g><g id="Calque_2" data-name="Calque 2"><circle class="cls-7" cx="-0.15" r="47.6"/><path class="cls-8" d="M21.15-42.5a47.49,47.49,0,0,1,12.4,32,47.59,47.59,0,0,1-47.6,47.6A46.89,46.89,0,0,1-35.45,32,47.43,47.43,0,0,0-.25,47.6,47.59,47.59,0,0,0,47.35,0,47.4,47.4,0,0,0,21.15-42.5Z"/><path class="cls-9" d="M28.55-1.5a82.55,82.55,0,0,0-2.7-21.4,70.65,70.65,0,0,0,13.3-3.9c-.5-.7-.9-1.3-1.4-2a69.57,69.57,0,0,1-12.5,3.5,71.76,71.76,0,0,0-8.8-19.4c-1.2-.5-2.5-.8-3.7-1.2a65.2,65.2,0,0,1,10.2,21,89.94,89.94,0,0,1-13.9,1.1c-15.9,0-30.5-4.3-41.3-11.4a13.65,13.65,0,0,0-1.7,1.7c11.3,7.5,26.4,12.1,43.1,12.1a87.18,87.18,0,0,0,14.6-1.2,83.31,83.31,0,0,1,2.6,21c0,1,0,2.1-.1,3.1A293.82,293.82,0,0,1-9.65,3.6a284.28,284.28,0,0,1-37.9-2.4c0,.8.1,1.6.1,2.4A287.16,287.16,0,0,0-9.65,6a294.57,294.57,0,0,0,35.8-2.1,85.14,85.14,0,0,1-3.8,20.2,84.79,84.79,0,0,0-26.3,3.7,83.73,83.73,0,0,0-23.3,11.1c.7.5,1.4,1,2.1,1.4A83.39,83.39,0,0,1-3.25,30a83.84,83.84,0,0,1,24.8-3.7A61.71,61.71,0,0,1,9.65,46.5c1.3-.3,2.6-.6,3.9-1A63.75,63.75,0,0,0,24,26.4a63.92,63.92,0,0,1,14.1,2.1c.5-.7,1-1.3,1.5-2a69.46,69.46,0,0,0-14.7-2.4,84.51,84.51,0,0,0,3.8-20.6c6.6-.9,13-2,19.1-3.3V-.1a14.77,14.77,0,0,0-.1-2.1q-9,1.95-18.9,3.3A5.65,5.65,0,0,1,28.55-1.5Z"/></g><g id="Calque_3" data-name="Calque 3"><path class="cls-10" d="M538.65,867.7S721.73-426.44,529.35,268"/></g><g id="Calque_4" data-name="Calque 4"><path class="cls-2" d="M548.9,383.5h-.2a2.09,2.09,0,0,1-1.9-2.4c1.6-16.7,6.8-34.3,15.7-53.8,1.3-2.9,2.6-6,3.9-8.9,6.1-13.6,12.4-27.6,11.5-41.1H474.5c-.9,13.5,5.4,27.6,11.5,41.1,1.3,2.9,2.7,5.9,4,8.9,8.9,19.4,14,37,15.7,53.7a2.23,2.23,0,0,1-1.9,2.4,2.29,2.29,0,0,1-2.4-1.9c-1.6-16.2-6.6-33.3-15.3-52.4-1.3-3-2.6-6-3.9-8.9-6.6-14.8-13.5-30-11.7-45.3a2.17,2.17,0,0,1,2.2-1.9H580.1a2.25,2.25,0,0,1,2.2,1.9c1.8,15.3-5,30.6-11.7,45.3-1.3,2.9-2.7,5.9-3.9,8.8-8.7,19.1-13.8,36.2-15.3,52.4A2.72,2.72,0,0,1,548.9,383.5Z"/><path class="cls-2" d="M580.2,279.8c0-.1-.1-.2-.1-.3a1,1,0,0,0-1.5-.2l-17.1,12.5-17.1-12.5a1.05,1.05,0,0,0-1.3,0L526,291.8l-17.1-12.5a1.05,1.05,0,0,0-1.3,0l-17.1,12.5-17.1-12.5a1.07,1.07,0,0,0-1.1-.1v2l16.4,12-11.9,8.7c.3.7.5,1.4.8,2.1l13-9.5,15.9,11.7-15.9,11.7-10.5-7.7c.6,1.3,1.1,2.6,1.7,3.9l7,5.1-3.5,2.6c.3.7.6,1.3.9,2l4.5-3.3,15.9,11.7-12.8,9.4c.3.7.5,1.4.8,2.1l13.8-10.1,15.9,11.7-15.9,11.6L496,347.8l1.2,3.6,9.3,6.8-6.1,4.5a18.91,18.91,0,0,1,.5,2.3l7.4-5.4,15.9,11.7-11.3,8.2a1.12,1.12,0,0,0,.6,2h0a1.07,1.07,0,0,0,.6-.2l11.8-8.6,11.8,8.6a1.42,1.42,0,0,0,.6.2h0a1.1,1.1,0,0,0,.6-2l-11.3-8.3,15.9-11.6,7.9,5.8a18.91,18.91,0,0,0,.5-2.3l-6.6-4.8,10-7.4,1.2-3.6-13.1,9.6-15.9-11.7,15.9-11.7L557.7,344c.3-.7.5-1.4.8-2.1l-13.2-9.7,15.9-11.7,4.9,3.6c.3-.7.6-1.3.9-2l-3.9-2.9,7.8-5.7c.6-1.3,1.1-2.6,1.7-3.9l-11.3,8.3-15.9-11.7,15.9-11.7,13.4,9.8c.3-.7.5-1.4.8-2.1l-12.4-9.1L579.7,281a1,1,0,0,0,.4-.5A1.49,1.49,0,0,0,580.2,279.8Zm-54.3,14.7,15.9,11.6-15.9,11.7L510,306.2Zm-33.6-1.3,15.9-11.7,15.9,11.7-15.9,11.7Zm0,26,15.9-11.7,15.9,11.7-15.9,11.6Zm49.5,39-15.9,11.7L510,358.2l15.9-11.7Zm-15.9-14.4L510,332.2l15.9-11.7,15.9,11.6Zm33.7-24.6-15.9,11.7-15.9-11.7,15.9-11.6Zm-15.9-14.4-15.9-11.7,15.9-11.6,15.9,11.7Z"/><path class="cls-11" d="M586.1,268H467.7a7.2,7.2,0,0,0,0,14.4H586.1a7.2,7.2,0,1,0,0-14.4Z"/><path class="cls-12" d="M561.6,268H492.3a7.2,7.2,0,0,0,0,14.4h69.3a7.2,7.2,0,1,0,0-14.4Z"/></g></svg>