<svg id="Calque_1" data-name="Calque 1" xmlns="http://www.w3.org/2000/svg" viewBox="0 0 1400 980"><defs><style>.cls-1{fill:#2159ff;}.cls-2{fill:#fdfdfd;}.cls-3{fill:#ebaea6;}.cls-4{fill:#d6847a;}.cls-5{fill:#f09582;}.cls-6{fill:#d18272;}.cls-7{fill:#d68574;}.cls-8{fill:#9e271e;}.cls-9{fill:#c22f25;}.cls-10{fill:#050608;}.cls-11{fill:#fff;}.cls-12{fill:#2a3839;}.cls-13{fill:#a3a3a3;}.cls-14{fill:#222d2e;}.cls-15{fill:#a82820;}.cls-16{fill:#8a221a;}.cls-17{fill:#f8786b;}.cls-18{fill:#d4675c;}.cls-19{fill:#a83a2d;}.cls-20{fill:#58595b;}.cls-21{fill:#ffa279;}</style></defs><title>basket-player</title><g id="Layer_1" data-name="Layer 1"><rect class="cls-1" width="1400" height="980"/><path class="cls-2" d="M814.1,205.1a72.25,72.25,0,0,0-55.9.3c-16.8-25.4-47.4-42.2-77.7-39.7s-58.6,22.4-71,50.2a73.77,73.77,0,0,0-52.1,3.9,72.23,72.23,0,0,0-35.3,37.7H859.3C849.5,231,831.7,212.5,814.1,205.1Z"/><path class="cls-2" d="M1121.7,493.1a47.4,47.4,0,0,0-36.6.2c-11-16.6-31-27.6-50.9-26a56.92,56.92,0,0,0-46.5,32.9,48.41,48.41,0,0,0-34.1,2.6,47.23,47.23,0,0,0-23.1,24.7h220.8C1145,510,1133.3,497.9,1121.7,493.1Z"/><path class="cls-2" d="M349.2,395.8a47.4,47.4,0,0,1,36.6.2c11-16.6,31-27.6,50.9-26a56.92,56.92,0,0,1,46.5,32.9,48.41,48.41,0,0,1,34.1,2.6,47.23,47.23,0,0,1,23.1,24.7H319.6C326,412.8,337.6,400.6,349.2,395.8Z"/><rect class="cls-3" y="875.9" width="1400" height="104.1"/><path class="cls-4" d="M716.9,905.9c0-9.3-59.4-16.8-132.6-16.8s-132.6,7.5-132.6,16.8c0,1.2,1,2.3,2.8,3.4-61,1.8-106.6,8.7-106.6,17,0,9.6,61.3,17.4,137,17.4s137-7.8,137-17.4c0-1.4-1.3-2.8-3.9-4.1C674.9,920.3,716.9,913.7,716.9,905.9Z"/><path class="cls-5" d="M574.4,339.7s26.1-4.5,41.7,7.4,30.6,33.2,42.5,45.9,19.8,17,20.6,37.2.1,55.1.1,55.1l-18.3-.8s-6.2-25.7-9.6-50.9c-1.8-13.2-12.7-25.3-32.6-34.9-10.6-5.1-29.2-14.3-29.2-14.3Z"/><path class="cls-5" d="M491.9,373c13.2-18.8,24.6-17.1,25.8-23,1-5.1-9.1-24.4-9.1-24.4l32.2-15.2,5.8,20c1.6,5.5,9.1,12.6,15.1,11.6,4.2-.7,8.4-1.4,12.6-2.2,8-1.4,17.3,3.7,19.1,11,12.8,51.9,17.5,91.3,11.8,155.9l-85.9,16c-8.3-68.9-8.4-70.8-22-121.2C495.4,393.9,487.3,379.6,491.9,373Z"/><path class="cls-6" d="M571.4,340.2l18.2,44.3s5.6,2.8,12.4,6.1c0,0-1.7-7-7.9-23.1-4.7-12-10.2-23.5-12.6-28.5A65,65,0,0,0,571.4,340.2Z"/><path class="cls-7" d="M501.9,596s-28,69-22.5,86.9,46.1,28.3,67.4,36.5c30.2,11.7,58,30,58,30l10.1-16.8s-31.7-43.2-72-57.9c-12.8-4.7-22.5-4.7-20.2-11.8S543,617.1,543,617.1Z"/><path class="cls-5" d="M550.9,607.9s-37.1,86.5-39.3,109.4.7,120.4-.2,135.1c-1.1,17.2-1.8,23.5-1.8,23.5l28.3-.7s6-29.7,11.6-48.7,7-43.8,3.8-67.3S608.7,596,608.7,596Z"/><path class="cls-8" d="M519.4,522.7,483,634.9a43.22,43.22,0,0,0,20.8,13.7c21,6.1,37.5,3.4,37.5,3.4L577,536Z"/><path class="cls-5" d="M551.2,281.9c4,9.2,4.8,20.3,5.1,29.8.4,10.1-.6,18.5-6.5,23.1-11.2,9-29.7,6.3-36,6.6-20.1,1-40.1-24.6-42.8-40.1-4-23,5.1-42.1,27-50C516.2,244.8,536.6,248.5,551.2,281.9Z"/><path class="cls-6" d="M556.4,341c-6.6-3.6-9.2-8.6-9.8-10.7l-5.8-20-32.2,15.2s6.4,12.5,8.8,20.1C527.8,350.5,547.5,352.3,556.4,341Z"/><path class="cls-5" d="M504.8,359.4s-20.5,14.6-28.5,40.4c-8.3,26.7-16,52-33.6,69.9-14.6-1.8-64.2,17.9-64.2,17.9l1.8,15s68.4,5,80.3-6.4,20.9-28.7,29.7-37.3c17.6-17,28.3-37.7,28.3-37.7Z"/><path class="cls-5" d="M382.4,487.6a73.75,73.75,0,0,0-22.6-6.5c-13.1-1.6-20.2,3.3-20.2,3.3l22.2,38.3s13.9-10.6,20.6-17.8S382.4,487.6,382.4,487.6Z"/><path class="cls-7" d="M688.8,497.2s9.6,17.8,9.2,21.2c-.5,4.4-2.8,19.8-5.8,19.8s-2.8-1.9-1.8-8.1,2.5-15.2-.7-20.2S688.8,497.2,688.8,497.2Z"/><path class="cls-7" d="M688,510.7l-5.7-4.8a6.05,6.05,0,0,0-.9-.9l-6.4-2.5s5.1,5.7,5.8,7.9-3.8,8.6-1.5,9.4c1.8.6,4-2.5,5.3-5.2a7.76,7.76,0,0,1,.3,2.4c-.2,3-8.3,8.9-5.7,10.8s8.4-3.4,10.8-6.3S688,510.7,688,510.7Z"/><path class="cls-5" d="M661,484.2c-3.2,4.2-3.5,4.6-5.1,9.8s-10.2,10.1-7.7,14.3c2.1,3.6,7.6.3,14.4-5.8,3.6-3.2,19,1.7,24.3,11.9,2.6,4.9-1.2,15.3-1.1,18.6s4.3,5.8,6.5-3.5c2-8.5,3.8-11.4,2.8-16.1C686.6,476.6,667.4,475.6,661,484.2Z"/><path class="cls-9" d="M605.3,506.7s24.7,38.5,10.4,79S590.3,654,590.3,654s-4.8,5.8-29.6,4.2a198.49,198.49,0,0,1-33.6-5.5s15-62.5,21.5-98.4a335.76,335.76,0,0,1-29.2-31.5Z"/><path class="cls-5" d="M554.4,284.3c4.2,9.5,4.9,21,5.3,30.8.4,10.4-.7,19.1-6.7,23.9-11.6,9.2-30.6,6.5-37.2,6.8-20.8,1-41.4-25.4-44.1-41.4-4.1-23.7,5.2-43.4,27.9-51.6C518.2,246,539.2,249.8,554.4,284.3Z"/><path class="cls-10" d="M549.6,261.1c-10.3-17-33.7-18.2-50-13.4-18.3,5.4-39.2,19.9-36.7,52,2.2,29,24.5,40.8,34,44.4,10,3.8,20.4,1.9,20.4,1.9a88.68,88.68,0,0,1-12.8-9.6,140.18,140.18,0,0,1-10.6-11.1,6.89,6.89,0,0,1-2.1,3.5c-2.7,2.8-13.3-3.2-12.9-12.9.5-12.4,13.9-3.2,13.9-3.2s8.6-15.4,16.3-19.2c.4-.2.8-.4,1.3-.6-3.9,5.4-8.5,10.8-8.5,10.8a92.69,92.69,0,0,0,16.8-11.6c-2.2,3.5-4,6.1-4,6.1s19.6-6.2,29.1-24.6c2.3,3.1-1.7,10.6-1.7,10.6s6.3-3.9,7.1-10.6c2.4,4.7,4.4,8.7,4.4,8.7A29.33,29.33,0,0,0,549.6,261.1Z"/><path class="cls-6" d="M512,391.9l-4.1-18.5a61,61,0,0,0-5-12.6,96.24,96.24,0,0,0-10.3,10c0,.1,7.4,24.4,10.7,43.4,2.7,15.8,3.6,22.9,3.8,24.8.2-.2.3-.5.5-.7A112.63,112.63,0,0,0,512,391.9Z"/><path class="cls-11" d="M543.4,850.1a51.31,51.31,0,0,1-15.5,1.4,72.16,72.16,0,0,1-16.4-3c0,1.6-.1,2.9-.1,3.9-1.1,17.2-1.8,23.5-1.8,23.5l28.3-.7S540.3,863.5,543.4,850.1Z"/><path class="cls-12" d="M511.4,861.9c-3.9-.1-6.5,8.7-10,18.9-4.3,12.5-22.5,17.4-32.3,13.2-6.3-2.8-17,.8-23,9.1s20.7,28.6,39.4,27.4,52.1-4,52.7-13-3.4-21.8-.3-31.9c4.4-13.9,1.7-18.7,1.7-18.7s-6.3,4.3-11,4.2C518.7,870.8,518.6,862.1,511.4,861.9Z"/><path class="cls-13" d="M485.2,904.4A2.51,2.51,0,0,1,483,903a21.06,21.06,0,0,0-6.5-7.6c.8-.9,4.6-1.1,5.8-.5a17.2,17.2,0,0,1,5.1,6.1,2.37,2.37,0,0,1-1.1,3.2A4.25,4.25,0,0,1,485.2,904.4Z"/><path class="cls-13" d="M497.2,901.2a2.51,2.51,0,0,1-2.2-1.4,17.83,17.83,0,0,0-5.8-7c.5-2.1,3-2.7,4.5-2.4.2.1,2.7,1.1,5.7,7.4a2.37,2.37,0,0,1-1.1,3.2A2.15,2.15,0,0,1,497.2,901.2Z"/><path class="cls-13" d="M506.8,893.1a2.43,2.43,0,0,1-2-1.1,15.21,15.21,0,0,0-6.4-5.8,3.52,3.52,0,0,1,2.5-4.2c.2.1,4,1.5,7.8,7.4a2.4,2.4,0,0,1-.7,3.3A1.75,1.75,0,0,1,506.8,893.1Z"/><path class="cls-13" d="M512.4,882a2.39,2.39,0,0,1-1.4-.5,15.35,15.35,0,0,0-8.6-3.2c-.5-1.7.2-4.2,1.6-4.8,0,0,4.4.1,9.9,4.2a2.3,2.3,0,0,1,.5,3.3A2.6,2.6,0,0,1,512.4,882Z"/><path class="cls-14" d="M514.7,898c-6.1,2-3.4,9.5-20.3,11.7s-21.6,11.1-21.6,11.1a65.38,65.38,0,0,1,8.1,4.2c5.6,3.2,19-.8,47.6-6,4-.7,7.2-1.3,9.6-1.7.5-9-3.4-21.7-.3-31.8,4.4-13.9,1.7-18.7,1.7-18.7s-4.5,12.5-7.8,20.7C527.8,897.4,520.9,896,514.7,898Z"/><path class="cls-11" d="M538.3,917.4a48.94,48.94,0,0,0-.3-7.5,63.91,63.91,0,0,1-7.4,4.3c-14.3,6.7-28,6.5-47,6.5s-35-20.4-35.1-20.4c-.8.9-1.6,1.8-2.4,2.8-6,8.3,20.7,28.6,39.4,27.4S537.7,926.5,538.3,917.4Z"/><path class="cls-14" d="M519.5,883.1c2.1-4.9,4.3-8.6,5.6-12.6a10,10,0,0,1-3.7-1.9h0a68.37,68.37,0,0,1-6,17.1c-3.2,6.3-10.9,14.5-10.9,14.5S515.3,893.1,519.5,883.1Z"/><path class="cls-14" d="M510.9,871.2c.9-1.8,2.5-5,.5-5.6a18,18,0,0,0-4.1-.3c-.8,1.5-1.6,3.4-2.5,5.5C506.3,871.3,510.2,872.7,510.9,871.2Z"/><path class="cls-11" d="M614.9,732.7A217.94,217.94,0,0,0,588.4,704a69.91,69.91,0,0,1-5.3,16.1c-4.2,8.9-7.8,12.4-7.8,12.4h0c17.2,8.9,29.5,17,29.5,17Z"/><path class="cls-12" d="M584.9,739c-1.4,3.7,6.1,9,14.6,15.6,10.4,8.1,9.1,27,1.8,34.8-4.7,5.1-4.9,16.3,1,24.7s33.8-10.2,38.8-28.2,13.4-50.5,5-54.1-21.7-3.9-30.2-10.2c-11.7-8.7-17.1-7.7-17.1-7.7s2,7.4.3,11.8C595.7,735,587.4,732.3,584.9,739Z"/><path class="cls-13" d="M616.5,777.7a2.4,2.4,0,0,1-2,1.6,20,20,0,0,0-9.3,3.7c-.6-1.1.5-4.7,1.4-5.6a16.11,16.11,0,0,1,7.4-2.8,2.3,2.3,0,0,1,2.6,2.1A1.73,1.73,0,0,1,616.5,777.7Z"/><path class="cls-13" d="M617.4,765.3a2.4,2.4,0,0,1-2,1.6,17,17,0,0,0-8.5,3.2c-1.8-1.1-1.6-3.7-.8-5,.2-.1,1.9-2.2,8.9-2.9a2.37,2.37,0,0,1,2.6,2.1A1.65,1.65,0,0,1,617.4,765.3Z"/><path class="cls-13" d="M612.9,753.7a2.56,2.56,0,0,1-1.7,1.5,15,15,0,0,0-7.5,4.1,3.52,3.52,0,0,1-3.1-3.8c.1-.2,2.7-3.3,9.5-5a2.43,2.43,0,0,1,2.9,1.7A3.69,3.69,0,0,1,612.9,753.7Z"/><path class="cls-13" d="M604.2,744.7a2.73,2.73,0,0,1-.9,1.2,16.14,16.14,0,0,0-5.9,7.1c-1.8,0-3.9-1.6-4-3.1,0,0,1.5-4.1,7.2-7.9a2.4,2.4,0,0,1,3.3.7A1.84,1.84,0,0,1,604.2,744.7Z"/><path class="cls-14" d="M620.1,747.7c-.1,6.4,7.9,6.3,4.4,23s3.4,24,3.4,24a73,73,0,0,1,6.6-6.3c4.8-4.2,5.5-18.3,10-46.9.6-4.1,1.2-7.2,1.6-9.7-8.4-3.5-21.6-3.9-30.1-10.2-11.7-8.7-17.1-7.7-17.1-7.7s10.3,8.3,17,14.2C623.8,735.2,620.3,741.3,620.1,747.7Z"/><path class="cls-11" d="M646.2,731.9a43.65,43.65,0,0,0-7.2-2.2,53.77,53.77,0,0,1,1.6,8.4c1.7,15.7-3.1,28.6-9.3,46.5S600.6,811,600.5,811a19.23,19.23,0,0,0,1.8,3.1c5.9,8.4,33.8-10.2,38.8-28.2S654.6,735.4,646.2,731.9Z"/><path class="cls-14" d="M607.6,738.4c-4-3.6-6.8-6.9-10.1-9.4a10.26,10.26,0,0,1-3,2.9h0a70.55,70.55,0,0,1,14.2,11.3c4.9,5.1,10.1,15.1,10.1,15.1S615.7,745.7,607.6,738.4Z"/><path class="cls-14" d="M593.5,742.6c-1.4-1.4-3.9-4-5.1-2.3a13.18,13.18,0,0,0-1.6,3.8,29.76,29.76,0,0,0,4.4,4.1C592.2,747,594.7,743.7,593.5,742.6Z"/><path class="cls-11" d="M555.9,657.7c8.1-27,26.7-90.7,26.3-99.4-.6-10.7-6.9-38.4-7.2-39.6l-3.5.8c.1.3,6.5,28.5,7.1,39,.4,7.5-16.5,66.2-26.3,98.8C553.5,657.4,554.7,657.6,555.9,657.7Z"/><path class="cls-11" d="M597.1,558.3c-.6-10.7-6.9-38.4-7.2-39.6l-3.5.8c.1.3,6.5,28.5,7.1,39,.4,7.6-16.9,67.5-26.6,99.9h3.7C578.6,631.8,597.6,567.1,597.1,558.3Z"/><path class="cls-9" d="M508.6,356.8S528,392.6,547.4,388c23.1-5.4,18.3-32.1,14.3-46.1,1.5-2,7.5-2.9,9.7-1.7,10.8,14.7,24.7,38.1,30.6,50.4,10.8,22.5,8.1,51.6,8.1,76.6a382.42,382.42,0,0,0,3.3,48S589.1,539,551,538.8c-19.9-.1-37.7-7.5-37.7-7.5s.3-37.2-4.1-73.5c-1.3-10.8-2.1-18.6-2.1-18.6s3-18.6-2.3-47.4c-4.2-22.5-5.4-27.8-5.4-27.8a12.46,12.46,0,0,1,3.5-4.5C506.2,356.6,508.6,356.8,508.6,356.8Z"/><path class="cls-15" d="M502.1,360.2a9.83,9.83,0,0,0-2.7,3.8s1.2,5.3,5.4,27.8c5.4,28.9,2.3,47.4,2.3,47.4a2.8,2.8,0,0,0,.1.6,110.43,110.43,0,0,0,2.3-48.9C506.6,375.1,502.1,360.2,502.1,360.2Z"/><path class="cls-15" d="M544,393.2a24,24,0,0,0,4.6-.5c7.7-1.8,14.3-5.4,17-11.9,7.5-17.7-3.2-39.7-3.8-38.8,4,14,8.8,40.7-14.3,46.1-19.5,4.6-38.8-31.2-38.8-31.2S518.4,393.2,544,393.2Z"/><path class="cls-15" d="M602,390.7c-5.9-12.3-19.8-35.7-30.6-50.4a11,11,0,0,0-4.5-.4C586.4,367.5,602,390.7,602,390.7Z"/><path class="cls-16" d="M513.3,531.3s17.8,7.5,37.7,7.5c38.1.1,62.4-23.5,62.4-23.5a2.8,2.8,0,0,0-.1-.6s-13.9,13.4-53.6,17.4C532.1,534.9,513.3,531.3,513.3,531.3Z"/><path class="cls-6" d="M361.9,493.2s2.6,13.3,5.1,25.3c3.7-3,8.7-7.2,12.6-10.9,0-1.1,0-2.1-.1-3.1-1.2-11.3-10.3-21.6-10.3-21.6h0Z"/><circle class="cls-17" cx="327.3" cy="505.3" r="47.6"/><path class="cls-18" d="M348.6,462.8a47.57,47.57,0,0,1-35.2,79.6,46.89,46.89,0,0,1-21.4-5.1,47.58,47.58,0,1,0,56.6-74.5Z"/><path class="cls-19" d="M356,503.8a82.55,82.55,0,0,0-2.7-21.4,70.65,70.65,0,0,0,13.3-3.9c-.5-.7-.9-1.3-1.4-2a69.57,69.57,0,0,1-12.5,3.5,71.76,71.76,0,0,0-8.8-19.4c-1.2-.5-2.5-.8-3.7-1.2a65.2,65.2,0,0,1,10.2,21,89.94,89.94,0,0,1-13.9,1.1c-15.9,0-30.5-4.3-41.3-11.4a13.65,13.65,0,0,0-1.7,1.7c11.3,7.5,26.4,12.1,43.1,12.1a87.18,87.18,0,0,0,14.6-1.2,83.31,83.31,0,0,1,2.6,21c0,1,0,2.1-.1,3.1a293.83,293.83,0,0,1-35.9,2.1,284.28,284.28,0,0,1-37.9-2.4c0,.8.1,1.6.1,2.4a287.15,287.15,0,0,0,37.8,2.4,294.56,294.56,0,0,0,35.8-2.1,85.14,85.14,0,0,1-3.8,20.2,84.79,84.79,0,0,0-26.3,3.7,83.73,83.73,0,0,0-23.3,11.1c.7.5,1.4,1,2.1,1.4a84.82,84.82,0,0,1,46.7-14,61.71,61.71,0,0,1-11.9,20.2c1.3-.3,2.6-.6,3.9-1a63.75,63.75,0,0,0,10.4-19.1,63.92,63.92,0,0,1,14.1,2.1c.5-.7,1-1.3,1.5-2a69.46,69.46,0,0,0-14.7-2.4,84.51,84.51,0,0,0,3.8-20.6c6.6-.9,13-2,19.1-3.3v-.3a14.77,14.77,0,0,0-.1-2.1q-9,1.95-18.9,3.3A7.44,7.44,0,0,1,356,503.8Z"/><path class="cls-12" d="M636.6,410a7.87,7.87,0,0,0,3,5.7,30.53,30.53,0,0,1,10.2,21.6c.2,7.8,3.2,7.4,3.2,7.4a25.23,25.23,0,0,1,12.8-4.2,38.54,38.54,0,0,1,13.7,2.1s2-1.4,2.1-5.6c0-4.6-.6-22.3-5.8-28.6-15.5-18.7-16.7-14.7-16.7-14.7s-1.8,6.8-10.6,12.3C644.8,408.3,636.6,410,636.6,410Z"/><path class="cls-11" d="M643.4,419.7a31.53,31.53,0,0,1,5.3,10.3,6,6,0,0,0,4.9-5.9,6.12,6.12,0,0,0-6.1-6.1A5.83,5.83,0,0,0,643.4,419.7Z"/><polygon class="cls-20" points="1000.5 286.2 992.8 278.4 884.1 387.1 884.1 211.4 868.3 211.4 868.3 389.3 757.5 278.6 749.8 286.3 868.3 404.8 868.3 854.5 884.1 854.5 884.1 402.6 1000.5 286.2"/><polygon class="cls-21" points="1047.9 284 711.4 294.1 701.3 55.6 1058 65.8 1047.9 284"/><path class="cls-2" d="M725.2,281.2a1.88,1.88,0,0,1-1.9-1.8L714.4,70.6a1.82,1.82,0,0,1,.6-1.4,2,2,0,0,1,1.4-.6l326.5,9.3a2,2,0,0,1,1.4.6,1.87,1.87,0,0,1,.5,1.4L1036,270.1a1.88,1.88,0,0,1-1.9,1.8l-308.9,9.3ZM718.4,72.5l8.7,204.8,305.1-9.2,8.7-186.4Z"/><path class="cls-2" d="M761.2,279.1a1.88,1.88,0,0,1-1.9-1.8l-5.6-131.5a1.82,1.82,0,0,1,.6-1.4,2,2,0,0,1,1.4-.6l248,7.1a2,2,0,0,1,1.4.6,1.87,1.87,0,0,1,.5,1.4l-5.5,117.3a1.88,1.88,0,0,1-1.9,1.8l-237,7.1Zm-3.6-131.4L763,275.2l233.3-7,5.3-113.5Z"/><path class="cls-2" d="M898.9,383.5h-.2a2.09,2.09,0,0,1-1.9-2.4c1.6-16.7,6.8-34.3,15.7-53.8,1.3-2.9,2.6-6,3.9-8.9,6.1-13.6,12.4-27.6,11.5-41.1H824.5c-.9,13.5,5.4,27.6,11.5,41.1,1.3,2.9,2.7,5.9,4,8.9,8.9,19.4,14,37,15.7,53.7a2.23,2.23,0,0,1-1.9,2.4,2.29,2.29,0,0,1-2.4-1.9c-1.6-16.2-6.6-33.3-15.3-52.4-1.3-3-2.6-6-3.9-8.9-6.6-14.8-13.5-30-11.7-45.3a2.17,2.17,0,0,1,2.2-1.9H930.1a2.25,2.25,0,0,1,2.2,1.9c1.8,15.3-5,30.6-11.7,45.3-1.3,2.9-2.7,5.9-3.9,8.8-8.7,19.1-13.8,36.2-15.3,52.4A2.72,2.72,0,0,1,898.9,383.5Z"/><path class="cls-2" d="M930.2,279.8c0-.1-.1-.2-.1-.3a1,1,0,0,0-1.5-.2l-17.1,12.5-17.1-12.5a1.05,1.05,0,0,0-1.3,0L876,291.8l-17.1-12.5a1.05,1.05,0,0,0-1.3,0l-17.1,12.5-17.1-12.5a1.07,1.07,0,0,0-1.1-.1v2l16.4,12-11.9,8.7c.3.7.5,1.4.8,2.1l13-9.5,15.9,11.7-15.9,11.7-10.5-7.7c.6,1.3,1.1,2.6,1.7,3.9l7,5.1-3.5,2.6c.3.7.6,1.3.9,2l4.5-3.3,15.9,11.7-12.8,9.4c.3.7.5,1.4.8,2.1l13.8-10.1,15.9,11.7-15.9,11.6L846,347.8l1.2,3.6,9.3,6.8-6.1,4.5a18.91,18.91,0,0,1,.5,2.3l7.4-5.4,15.9,11.7-11.3,8.2a1.12,1.12,0,0,0,.6,2h0a1.07,1.07,0,0,0,.6-.2l11.8-8.6,11.8,8.6a1.42,1.42,0,0,0,.6.2h0a1.1,1.1,0,0,0,.6-2l-11.3-8.3,15.9-11.6,7.9,5.8a18.91,18.91,0,0,0,.5-2.3l-6.6-4.8,10-7.4,1.2-3.6-13.1,9.6-15.9-11.7,15.9-11.7L907.7,344c.3-.7.5-1.4.8-2.1l-13.2-9.7,15.9-11.7,4.9,3.6c.3-.7.6-1.3.9-2l-3.9-2.9,7.8-5.7c.6-1.3,1.1-2.6,1.7-3.9l-11.3,8.3-15.9-11.7,15.9-11.7,13.4,9.8c.3-.7.5-1.4.8-2.1l-12.4-9.1L929.7,281a1,1,0,0,0,.4-.5A1.49,1.49,0,0,0,930.2,279.8Zm-54.3,14.7,15.9,11.6-15.9,11.7L860,306.2Zm-33.6-1.3,15.9-11.7,15.9,11.7-15.9,11.7Zm0,26,15.9-11.7,15.9,11.7-15.9,11.6Zm49.5,39-15.9,11.7L860,358.2l15.9-11.7Zm-15.9-14.4L860,332.2l15.9-11.7,15.9,11.6Zm33.7-24.6-15.9,11.7-15.9-11.7,15.9-11.6Zm-15.9-14.4-15.9-11.7,15.9-11.6,15.9,11.7Z"/><path class="cls-15" d="M936.1,268H817.7a7.2,7.2,0,1,0,0,14.4H936.1a7.2,7.2,0,1,0,0-14.4Z"/><path class="cls-9" d="M911.6,268H842.3a7.2,7.2,0,0,0,0,14.4h69.3a7.2,7.2,0,1,0,0-14.4Z"/><path class="cls-20" d="M1016.2,876.5h-280v-2.8a30.34,30.34,0,0,1,30.3-30.3H985.9a30.34,30.34,0,0,1,30.3,30.3Z"/><path class="cls-4" d="M966.8,908.1h100c17.1,0-4.5-13.6-48.2-30.3l-4.9-1.9H736.2l4.9,1.9c43.7,16.7,93,30.3,110.1,30.3h100l188,71.9h15.7Z"/><ellipse class="cls-4" cx="328" cy="911.2" rx="22" ry="5.7"/><ellipse class="cls-4" cx="610.7" cy="953.9" rx="22" ry="5.7"/><ellipse class="cls-4" cx="716.9" cy="948.2" rx="22" ry="5.7"/><ellipse class="cls-4" cx="758.8" cy="910.9" rx="14" ry="3.6"/><ellipse class="cls-4" cx="292" cy="943.7" rx="14" ry="3.6"/><ellipse class="cls-4" cx="215.2" cy="920" rx="14" ry="3.6"/></g></svg>