<svg width="20" height="14" viewBox="0 0 20 14" fill="none" xmlns="http://www.w3.org/2000/svg">
<path fill-rule="evenodd" clip-rule="evenodd" d="M0.0749139 4.1005C0.0498275 4.12559 0.0248562 4.15075 0 4.17598L1.41426 5.59024C1.43908 5.56498 1.46404 5.53981 1.48913 5.51472C6.15033 0.853517 13.6921 0.828562 18.3842 5.43985L19.7984 4.02559C14.3253 -1.36672 5.51717 -1.34175 0.0749139 4.1005ZM2.75295 6.92893C6.6582 3.02369 12.9898 3.02369 16.8951 6.92893L15.4809 8.34315C12.3567 5.21895 7.29136 5.21895 4.16717 8.34315L2.75295 6.92893ZM14.0667 9.75736C11.7235 7.41421 7.92453 7.41421 5.58138 9.75736L6.99559 11.1716C8.55769 9.60948 11.0904 9.60948 12.6524 11.1716L14.0667 9.75736ZM11.2382 12.5858C10.4572 11.8047 9.19086 11.8047 8.40981 12.5858L9.82402 14L11.2382 12.5858Z" fill="#0C1E55"/>
</svg>
