<?xml version="1.0" encoding="utf-8"?>
<!-- Generator: Adobe Illustrator 21.1.0, SVG Export Plug-In . SVG Version: 6.00 Build 0)  -->
<svg version="1.1" id="Calque_1" xmlns="http://www.w3.org/2000/svg" xmlns:xlink="http://www.w3.org/1999/xlink" x="0px" y="0px"
	 viewBox="0 0 17 17" style="enable-background:new 0 0 17 17;" xml:space="preserve">
<path style="fill:#FFFFFF;" d="M0.2,6.1L0.2,6.1l1.1,1.3l0.1-0.1c3.9-3.9,10.3-3.9,14.2-0.1L16.8,6C12.2,1.5,4.8,1.5,0.2,6.1z
	 M2.5,8.4c3.3-3.3,8.6-3.3,11.9,0l-1.2,1.2C10.6,7,6.3,7,3.7,9.6L2.5,8.4z M12,10.8c-2-2-5.2-2-7.1,0L6.1,12c1.3-1.3,3.4-1.3,4.8,0
	L12,10.8z M9.6,13.2c-0.7-0.7-1.7-0.7-2.4,0l1.2,1.2L9.6,13.2z"/>
</svg>
