<svg width="18" height="16" viewBox="0 0 18 16" fill="none" xmlns="http://www.w3.org/2000/svg">
<path fill-rule="evenodd" clip-rule="evenodd" d="M3.06494 8.5C3.06494 12.054 5.94599 14.935 9.49994 14.935C13.0539 14.935 15.9349 12.054 15.9349 8.5C15.9349 4.94605 13.0539 2.065 9.49994 2.065C5.94599 2.065 3.06494 4.94605 3.06494 8.5ZM14.7649 8.49999C14.7649 11.4078 12.4077 13.765 9.4999 13.765C6.59212 13.765 4.2349 11.4078 4.2349 8.49999C4.2349 5.59221 6.59212 3.23499 9.4999 3.23499C12.4077 3.23499 14.7649 5.59221 14.7649 8.49999ZM9.51871 12.595C7.55458 12.595 6.4617 11.5605 6.4617 9.67V9.085H12.4927L12.5089 9.65335C12.5629 11.5505 11.4891 12.595 9.51871 12.595ZM11.3061 10.255C11.1687 11.0714 10.6166 11.425 9.51866 11.425C8.42131 11.425 7.85124 11.0683 7.6845 10.255H11.3061ZM10.67 6.16001H12.425V7.33001H10.67V6.16001ZM8.32994 6.16001H6.57494V7.33001H8.32994V6.16001Z" fill="white"/>
<line x1="0.919764" y1="14.4038" x2="17.1198" y2="0.903832" stroke="white" stroke-width="1.5"/>
</svg>
