<svg width="13" height="13" viewBox="0 0 13 13" fill="none" xmlns="http://www.w3.org/2000/svg">
<path fill-rule="evenodd" clip-rule="evenodd" d="M8.89627 1.10001C9.24983 1.10001 9.58875 1.24117 9.83628 1.49065L11.5108 3.16514C11.7601 3.41445 11.9001 3.75258 11.9001 4.10515C11.9001 4.45772 11.7601 4.79585 11.5108 5.04516L5.39715 11.1568C5.01997 11.5919 4.4853 11.8593 3.87278 11.9013H1.1001V11.3613L1.10185 9.08515C1.14785 8.51574 1.41258 7.98627 1.81641 7.63045L7.95561 1.49131C8.20455 1.24085 8.54311 1.10001 8.89627 1.10001ZM3.83465 10.8226C4.12313 10.8022 4.39166 10.6679 4.60729 10.4213L8.69071 6.33786L6.66335 4.31042L2.55599 8.41679C2.33721 8.61029 2.20186 8.88099 2.1801 9.12863V10.8216L3.83465 10.8226ZM7.42712 3.54683L9.45439 5.57418L10.7471 4.28148C10.7939 4.23472 10.8201 4.17129 10.8201 4.10515C10.8201 4.03901 10.7939 3.97558 10.7471 3.92882L9.07111 2.25283C9.02486 2.20622 8.96192 2.18001 8.89627 2.18001C8.83061 2.18001 8.76767 2.20622 8.72143 2.25283L7.42712 3.54683Z" fill="white"/>
</svg>
