<?xml version="1.0" encoding="utf-8"?>
<!-- Generator: Adobe Illustrator 21.1.0, SVG Export Plug-In . SVG Version: 6.00 Build 0)  -->
<svg version="1.1" id="Calque_1" xmlns="http://www.w3.org/2000/svg" xmlns:xlink="http://www.w3.org/1999/xlink" x="0px" y="0px"
	 viewBox="0 0 18 18" style="enable-background:new 0 0 18 18;" xml:space="preserve">
<style type="text/css">
	.st0{fill:#FFA279;}
</style>
<path class="st0" d="M4.5,4.5v2.7H3.6c-1,0-1.8,0.7-1.8,1.7v7.5c0,1,0.8,1.6,1.8,1.6h10.8c1,0,1.8-0.7,1.8-1.6V8.9
	c0-1-0.8-1.7-1.8-1.7h-0.9V4.5C13.5,2,11.5,0,9,0C6.5,0,4.5,2,4.5,4.5z M11.7,4.5v2.7H6.3V4.5C6.3,3,7.5,1.8,9,1.8
	C10.5,1.8,11.7,3,11.7,4.5z M3.6,16.2V9h10.8v7.2H3.6z M9.9,12.6c0,0.5-0.4,0.9-0.9,0.9s-0.9-0.4-0.9-0.9s0.4-0.9,0.9-0.9
	S9.9,12.1,9.9,12.6z"/>
</svg>
