<svg id="Calque_1" data-name="Calque 1" xmlns="http://www.w3.org/2000/svg" viewBox="0 0 30 30"><defs><style>.cls-1{fill:none;}.cls-2{fill:#fff;}</style></defs><title>profil</title><path class="cls-1" d="M15,2.73A12.27,12.27,0,1,0,27.27,15,12.27,12.27,0,0,0,15,2.73Zm2.73,6.82h4.09v2.73H17.73Zm-9.55,0h4.09v2.73H8.18Zm6.82,15c-4.58,0-7.13-2.41-7.13-6.82V16.36H22v1.36C22.15,22.1,19.64,24.55,15,24.55Z"/><rect class="cls-2" x="17.73" y="9.55" width="4.09" height="2.73"/><rect class="cls-2" x="8.18" y="9.55" width="4.09" height="2.73"/><path class="cls-2" d="M15,0A15,15,0,1,0,30,15,15,15,0,0,0,15,0Zm0,27.27A12.27,12.27,0,1,1,27.27,15,12.27,12.27,0,0,1,15,27.27Z"/><path class="cls-2" d="M7.92,16.36v1.36c0,4.4,2.55,6.82,7.13,6.82s7.09-2.44,7-6.82V16.36ZM15,21.82c-2.56,0-3.89-.83-4.28-2.73h8.44C18.89,21,17.6,21.82,15,21.82Z"/></svg>