<?xml version="1.0" encoding="utf-8"?>
<!-- Generator: Adobe Illustrator 21.1.0, SVG Export Plug-In . SVG Version: 6.00 Build 0)  -->
<svg version="1.1" id="Calque_1" xmlns="http://www.w3.org/2000/svg" xmlns:xlink="http://www.w3.org/1999/xlink" x="0px" y="0px"
	 viewBox="0 0 1856.1 527.5" style="enable-background:new 0 0 1856.1 527.5;" xml:space="preserve">
<style type="text/css">
	.st0{fill:#2159FF;}
	.st1{fill:#FDFDFD;}
</style>
<g id="Layer_2">
</g>
<rect class="st0" width="1856.1" height="527.5"/>
<g>
	<path class="st1" d="M494.5,156.6c-17.7-7.4-38.3-7.3-55.9,0.3c-16.8-25.4-47.4-42.2-77.7-39.7s-58.6,22.4-71,50.2
		c-16.9-5.1-36.3-3.7-52.1,3.9s-28.7,21.3-35.3,37.7h337.2C529.9,182.5,512.1,164,494.5,156.6z"/>
	<path class="st1" d="M802.1,444.6c-11.6-4.8-25.1-4.8-36.6,0.2c-11-16.6-31-27.6-50.9-26s-38.4,14.7-46.5,32.9
		c-11-3.3-23.7-2.4-34.1,2.6c-10.4,5-18.8,14-23.1,24.7h220.8C825.4,461.5,813.7,449.4,802.1,444.6z"/>
	<path class="st1" d="M29.6,347.3c11.6-4.8,25.1-4.8,36.6,0.2c11-16.6,31-27.6,50.9-26s38.4,14.7,46.5,32.9
		c11-3.3,23.7-2.4,34.1,2.6c10.4,5,18.8,14,23.1,24.7H0C6.4,364.3,18,352.1,29.6,347.3z"/>
</g>
<g>
	<path class="st1" d="M1518.9,156.6c-17.7-7.4-38.3-7.3-55.9,0.3c-16.8-25.4-47.4-42.2-77.7-39.7c-30.3,2.5-58.6,22.4-71,50.2
		c-16.9-5.1-36.3-3.7-52.1,3.9c-15.8,7.6-28.7,21.3-35.3,37.7h337.2C1554.3,182.5,1536.5,164,1518.9,156.6z"/>
	<path class="st1" d="M1826.5,444.6c-11.6-4.8-25.1-4.8-36.6,0.2c-11-16.6-31-27.6-50.9-26s-38.4,14.7-46.5,32.9
		c-11-3.3-23.7-2.4-34.1,2.6s-18.8,14-23.1,24.7h220.8C1849.8,461.5,1838.1,449.4,1826.5,444.6z"/>
	<path class="st1" d="M1054,347.3c11.6-4.8,25.1-4.8,36.6,0.2c11-16.6,31-27.6,50.9-26s38.4,14.7,46.5,32.9
		c11-3.3,23.7-2.4,34.1,2.6s18.8,14,23.1,24.7h-220.8C1030.8,364.3,1042.4,352.1,1054,347.3z"/>
</g>
</svg>
