<svg id="Calque_1" data-name="Calque 1" xmlns="http://www.w3.org/2000/svg" viewBox="0 0 30 30"><defs><style>.cls-1{fill:none;}.cls-2{fill:#fff;}</style></defs><title>training</title><path class="cls-1" d="M5.45,7.32A12.27,12.27,0,0,0,3.68,19.68,41.5,41.5,0,0,0,12.8,17,19.09,19.09,0,0,0,5.45,7.32Z"/><path class="cls-1" d="M19.36,13.72q3.25-1.85,6.55-4.17a12.27,12.27,0,0,0-7.43-6.23,44.45,44.45,0,0,0,.61,9.07Q19.21,13.06,19.36,13.72Z"/><path class="cls-1" d="M5.06,22.19a12.27,12.27,0,0,0,7.84,4.9,20.74,20.74,0,0,0,.46-7.4A44.6,44.6,0,0,1,5.06,22.19Z"/><path class="cls-1" d="M26.93,12.14a77.06,77.06,0,0,1-6.75,4.23,12.27,12.27,0,0,0,4.6,6A12.27,12.27,0,0,0,26.93,12.14Z"/><path class="cls-2" d="M15,0A15,15,0,1,0,30,15,15,15,0,0,0,15,0Zm3.53,3.25a12.27,12.27,0,0,1,7.38,6.3q-3.3,2.32-6.55,4.17-.15-.65-.29-1.36A44.45,44.45,0,0,1,18.53,3.25ZM3.65,19.68A12.27,12.27,0,0,1,5.45,7.32,19.09,19.09,0,0,1,12.8,17,41.5,41.5,0,0,1,3.65,19.68ZM12.9,27.1a12.27,12.27,0,0,1-7.84-4.9,44.6,44.6,0,0,0,8.3-2.51,20.74,20.74,0,0,1-.48,7.4ZM7.45,5.39A12.27,12.27,0,0,1,15,2.73h.8v.16a47.73,47.73,0,0,0,.56,10q.2,1.13.49,2.2l-1.62.8A21.82,21.82,0,0,0,7.38,5.39ZM15.72,27.2a22.79,22.79,0,0,0,.3-8.7l1.7-.78a14.86,14.86,0,0,0,5.11,6.74,12.27,12.27,0,0,1-7.19,2.81Zm9.14-4.84a12.27,12.27,0,0,1-4.68-6,77.55,77.55,0,0,0,6.75-4.25,12.27,12.27,0,0,1-2.15,10.28Z"/></svg>